Coordinates
version=1
nRows=18
nColumns=22
inDegrees=yes

Units are S.I. units (second, meters, Newtons, ...)
If the header above contains a line with 'inDegrees', this indicates whether rotational values are in degrees (yes) or radians (no).

endheader
time	pelvis_tilt	pelvis_list	pelvis_rotation	pelvis_tx	pelvis_ty	pelvis_tz	hip_flexion_r	hip_adduction_r	hip_rotation_r	knee_angle_r	ankle_angle_r	subtalar_angle_r	hip_flexion_l	hip_adduction_l	hip_rotation_l	knee_angle_l	ankle_angle_l	subtalar_angle_l	lumbar_extension	lumbar_bending	lumbar_rotation
      0.01000000	     -2.75012992	     -7.45547768	      6.21948644	      1.15316282	      0.96236557	     -0.32958662	      3.52109601	      6.58827883	     -4.90607001	    -13.88339388	     10.72552801	      1.48466752	      2.48606087	     -9.14574919	      5.49608656	     -9.01398085	     12.40827296	     -0.24055051	      3.30599405	      7.24594335	     -4.42566534
      0.02000000	     -2.74869067	     -7.45555952	      6.20805213	      1.15313954	      0.96237302	     -0.32957720	      3.52081526	      6.58816235	     -4.90824381	    -13.88288559	     10.72653704	      1.48677037	      2.48563568	     -9.14562690	      5.50020338	     -9.01858498	     12.40787373	     -0.23965768	      3.30236382	      7.24193154	     -4.43053212
      0.03000000	     -2.73844238	     -7.45132662	      6.19876457	      1.15308438	      0.96239157	     -0.32958860	      3.51936089	      6.58285227	     -4.89764540	    -13.89587059	     10.72916260	      1.50368442	      2.49076762	     -9.13879474	      5.50674045	     -9.04740668	     12.41057116	     -0.23418825	      3.28468636	      7.23774779	     -4.44647720
      0.04000000	     -2.73742099	     -7.45262597	      6.18229895	      1.15306838	      0.96240166	     -0.32958096	      3.51895735	      6.58337202	     -4.89943363	    -13.89456233	     10.72950170	      1.50553507	      2.49030392	     -9.13936472	      5.50963409	     -9.05430403	     12.41099645	     -0.23361174	      3.28480061	      7.23562664	     -4.45090122
      0.05000000	     -2.73235529	     -7.45663989	      6.16192742	      1.15300316	      0.96241496	     -0.32957739	      3.52442416	      6.58732252	     -4.87285935	    -13.90644624	     10.72535429	      1.52535202	      2.51024647	     -9.14071863	      5.49944803	     -9.10180453	     12.42449005	     -0.23005351	      3.27357635	      7.24115512	     -4.46092979
      0.06000000	     -2.73163475	     -7.45821563	      6.14178503	      1.15298775	      0.96242717	     -0.32957495	      3.52396011	      6.58747315	     -4.87462474	    -13.90501341	     10.72535223	      1.52701703	      2.51008217	     -9.14084905	      5.50213010	     -9.11006350	     12.42534411	     -0.22956875	      3.27597254	      7.24218609	     -4.46558292
      0.07000000	     -2.74641983	     -7.47545131	      6.10763489	      1.15290262	      0.96241348	     -0.32955699	      3.55031744	      6.60388613	     -4.83327629	    -13.91139273	     10.71824485	      1.56217831	      2.56319886	     -9.15414842	      5.45877087	     -9.17758629	     12.46172250	     -0.22360148	      3.28777623	      7.26362192	     -4.46181194
      0.08000000	     -2.74447917	     -7.47644187	      6.08717453	      1.15286814	      0.96242892	     -0.32955654	      3.55156007	      6.60325466	     -4.83349847	    -13.91307643	     10.71734177	      1.56328950	      2.56254156	     -9.15352834	      5.46347475	     -9.18552796	     12.46071134	     -0.22284425	      3.28838276	      7.26558127	     -4.46882183
      0.09000000	     -2.73902906	     -7.47967790	      6.06539355	      1.15275587	      0.96244671	     -0.32956361	      3.56783943	      6.60509503	     -4.80289796	    -13.94001172	     10.70705805	      1.57132331	      2.57939811	     -9.15307017	      5.45893166	     -9.22239007	     12.46185857	     -0.22056692	      3.27390629	      7.27519219	     -4.48888719
      0.10000000	     -2.73774834	     -7.48061683	      6.04388317	      1.15269730	      0.96246207	     -0.32957226	      3.57005053	      6.60340785	     -4.80301798	    -13.93863171	     10.70670956	      1.57244106	      2.58161852	     -9.15134424	      5.46065940	     -9.23162344	     12.46247702	     -0.22021994	      3.27305455	      7.28027855	     -4.49467092
      0.11000000	     -2.75368984	     -7.49474857	      6.00476451	      1.15255693	      0.96244755	     -0.32955636	      3.60894465	      6.61665154	     -4.74364081	    -13.96023354	     10.69848235	      1.59692291	      2.64573928	     -9.16016223	      5.39840778	     -9.31236242	     12.49551264	     -0.21814128	      3.28120579	      7.30211003	     -4.48853280
      0.12000000	     -2.74911882	     -7.49628371	      5.98505596	      1.15246821	      0.96246419	     -0.32957934	      3.61949911	      6.61513300	     -4.72751528	    -13.97822811	     10.69288495	      1.60067810	      2.64875870	     -9.15788703	      5.40277196	     -9.32575418	     12.49295790	     -0.21594785	      3.27445630	      7.31214577	     -4.50433737
      0.13000000	     -2.74494851	     -7.50002694	      5.96676707	      1.15234447	      0.96248079	     -0.32958802	      3.63300977	      6.61792750	     -4.70105126	    -13.99559998	     10.68659171	      1.60731076	      2.66240427	     -9.15884142	      5.39508584	     -9.35073476	     12.49329875	     -0.21486357	      3.25987714	      7.32207560	     -4.51871830
      0.14000000	     -2.74973997	     -7.51145601	      5.93976647	      1.15225358	      0.96248326	     -0.32959773	      3.64806469	      6.62795652	     -4.66731471	    -14.00122260	     10.68123264	      1.62432203	      2.68763619	     -9.16683980	      5.36485780	     -9.38582474	     12.50689790	     -0.21545367	      3.26292120	      7.34294929	     -4.51724774
      0.15000000	     -2.74694642	     -7.51170534	      5.92568275	      1.15218790	      0.96249795	     -0.32963237	      3.65035026	      6.62463739	     -4.66546320	    -14.00254209	     10.68003395	      1.62499073	      2.68743729	     -9.16317649	      5.36787443	     -9.39017125	     12.50602106	     -0.21523274	      3.26022598	      7.35224430	     -4.52441546
      0.16000000	     -2.73801922	     -7.51462757	      5.91169000	      1.15210170	      0.96251655	     -0.32964985	      3.65639679	      6.62702527	     -4.64341681	    -14.02135239	     10.67128060	      1.62903038	      2.68915929	     -9.16403277	      5.36752434	     -9.40693092	     12.50361624	     -0.21640011	      3.24706523	      7.36337089	     -4.54730816
      0.17000000	     -2.73560244	     -7.51486934	      5.90040422	      1.15204222	      0.96252719	     -0.32969765	      3.65701173	      6.62309966	     -4.64276498	    -14.02013226	     10.67057226	      1.62961675	      2.68980116	     -9.15944438	      5.36857583	     -9.41096671	     12.50344059	     -0.21669715	      3.24594336	      7.37539221	     -4.55155662
      0.18000000	     -2.73266514	     -7.51517073	      5.88513636	      1.15198379	      0.96253733	     -0.32972617	      3.65786506	      6.62014846	     -4.64091414	    -14.02056219	     10.66875389	      1.63050788	      2.69002777	     -9.15672595	      5.36963387	     -9.41781602	     12.50309329	     -0.21729942	      3.24360305	      7.38579543	     -4.55876020
